#!OML:ASF F:\VICON\USERDATA\INSTALL\rory3\rory3.ASF
:FULLY-SPECIFIED
:DEGREES
1715
root 15.4817 17.7422 -0.0480548 18.8875 -32.5952 5.65762
lowerback 15.5172 2.11582 -0.403002
upperback 7.66664 2.68108 6.72929
thorax -0.886129 1.12921 6.93512
lowerneck -9.02271 -7.19252 -9.1272
upperneck 31.9364 -11.2749 7.91526
head 13.1934 -5.12354 3.05116
rclavicle -5.40694e-014 1.11319e-014
rhumerus 9.57496 -10.3382 -86.6371
rradius 40.3616
rwrist -20.3296
rhand -19.0855 -24.7259
rfingers 7.12502
rthumb 7.22266 -54.5826
lclavicle -5.40694e-014 1.11319e-014
lhumerus -10.3371 -55.399 98.2619
lradius 70.7976
lwrist 79.5558
lhand -14.629 58.6175
lfingers 7.12502
lthumb 11.5225 -271.719
rfemur -46.9726 -4.74194 13.0133
rtibia 35.1489
rfoot -10.4039 -10.6155
rtoes 11.358
lfemur -25.0975 -11.4155 -17.63
ltibia 20.9189
lfoot -14.3261 -17.5336
ltoes -3.5307
1716
root 15.4476 17.7476 -0.0375668 19.0224 -32.7517 5.37434
lowerback 15.637 1.90307 -0.627928
upperback 7.65902 2.37434 6.62992
thorax -0.923186 0.973154 7.00856
lowerneck -9.12808 -6.88646 -9.20769
upperneck 32.1182 -10.8484 7.95751
head 13.2528 -4.94607 3.14807
rclavicle 6.67916e-014 -2.06736e-014
rhumerus 10.5805 -12.1454 -86.0137
rradius 39.8399
rwrist -18.9294
rhand -18.6954 -24.2278
rfingers 7.12502
rthumb 7.59912 -54.0713
lclavicle 6.67916e-014 -2.06736e-014
lhumerus -8.5224 -56.2698 97.4684
lradius 70.7119
lwrist 79.6246
lhand -14.2958 58.59
lfingers 7.12502
lthumb 11.8438 -271.765
rfemur -46.8708 -4.71659 13.4515
rtibia 35.0905
rfoot -10.3465 -10.3569
rtoes 11.5626
lfemur -24.9465 -11.2648 -17.3138
ltibia 20.9446
lfoot -14.6161 -17.6376
ltoes -4.14203
1717
root 15.4159 17.747 -0.031737 19.1582 -32.7859 5.20908
lowerback 15.7269 1.70886 -0.814701
upperback 7.63852 2.09668 6.47979
thorax -0.957878 0.834479 7.0001
lowerneck -9.19943 -6.66311 -9.09417
upperneck 32.2254 -10.5554 7.93825
head 13.2702 -4.8111 3.16644
rclavicle 1.59028e-015 8.42847e-014
rhumerus 11.5837 -13.8578 -85.4494
rradius 39.372
rwrist -17.5056
rhand -19.3857 -24.1706
rfingers 7.12502
rthumb 6.9328 -54.037
lclavicle 1.59028e-015 8.42847e-014
lhumerus -6.51893 -57.2332 96.5031
lradius 70.5533
lwrist 79.6943
lhand -12.986 58.6355
lfingers 7.12502
lthumb 13.1067 -271.796
rfemur -46.85 -4.68473 13.7347
rtibia 35.064
rfoot -10.3588 -10.2669
rtoes 11.4847
lfemur -24.936 -11.1962 -17.0465
ltibia 20.9816
lfoot -14.6285 -17.8132
ltoes -3.79615
1718
root 15.384 17.7452 -0.0308968 19.4807 -32.7277 4.92332
lowerback 15.722 1.41405 -0.977296
upperback 7.59585 1.6917 6.40669
thorax -0.949949 0.63132 7.08464
lowerneck -9.22904 -6.34044 -9.04131
upperneck 32.2391 -10.0792 7.86035
head 13.2175 -4.61398 3.19957
rclavicle -7.31528e-014 9.54166e-015
rhumerus 12.6366 -15.0834 -84.9038
rradius 38.8136
rwrist -15.7086
rhand -20.5366 -24.402
rfingers 7.12502
rthumb 5.82178 -54.302
lclavicle -7.31528e-014 9.54166e-015
lhumerus -4.44554 -57.8618 95.3505
lradius 70.3917
lwrist 79.6156
lhand -11.8938 58.4436
lfingers 7.12502
lthumb 14.1594 -272.059
rfemur -46.9882 -4.70447 14.1728
rtibia 35.0586
rfoot -10.3553 -10.2534
rtoes 11.169
lfemur -25.1116 -11.1613 -16.5949
ltibia 21.0501
lfoot -14.4263 -18.0179
ltoes -2.48052
1719
root 15.3536 17.7462 -0.0298027 19.8867 -32.3868 4.61814
lowerback 15.6423 0.999239 -0.960891
upperback 7.52247 1.15586 6.34787
thorax -0.913699 0.367502 7.10171
lowerneck -9.384 -6.0165 -9.00432
upperneck 32.3689 -9.60571 7.79601
head 13.2451 -4.41429 3.23859
rclavicle 6.04305e-014 -3.02153e-014
rhumerus 13.8318 -16.4662 -84.548
rradius 38.0008
rwrist -13.417
rhand -21.2531 -24.4687
rfingers 7.12502
rthumb 5.12999 -54.3866
lclavicle 6.04305e-014 -3.02153e-014
lhumerus -2.43083 -58.4488 94.0789
lradius 70.3465
lwrist 79.8467
lhand -12.0038 58.1908
lfingers 7.12502
lthumb 14.0534 -272.304
rfemur -47.1562 -5.02545 14.7438
rtibia 35.0574
rfoot -10.3441 -10.1886
rtoes 10.9588
lfemur -25.4532 -11.3165 -16.0212
ltibia 21.1704
lfoot -14.2264 -18.2899
ltoes -1.80579
1720
root 15.3269 17.7489 -0.0258698 20.2017 -31.9703 4.45147
lowerback 15.5874 0.677589 -0.816675
upperback 7.43086 0.760089 6.22149
thorax -0.928165 0.179795 6.94522
lowerneck -9.57877 -5.87012 -8.92452
upperneck 32.528 -9.43516 7.84897
head 13.3344 -4.32335 3.27005
rclavicle 1.59028e-014 -7.95139e-015
rhumerus 14.9094 -18.1262 -84.0157
rradius 37.1824
rwrist -11.2756
rhand -21.9681 -24.7576
rfingers 7.12502
rthumb 4.43953 -54.6911
lclavicle 1.59028e-014 -7.95139e-015
lhumerus -0.497506 -59.3753 92.9314
lradius 70.3199
lwrist 80.2692
lhand -12.3485 58.1979
lfingers 7.12502
lthumb 13.7211 -272.274
rfemur -47.2642 -5.38783 15.1441
rtibia 35.0601
rfoot -10.4535 -10.1331
rtoes 11.2391
lfemur -25.7914 -11.6646 -15.5532
ltibia 21.2855
lfoot -14.1271 -18.407
ltoes -2.12929
1721
root 15.2961 17.7518 -0.0208075 20.3322 -31.8558 4.32948
lowerback 15.7409 0.48614 -0.970199
upperback 7.3586 0.497619 6.19556
thorax -1.05257 0.050417 7.05232
lowerneck -9.69017 -5.7437 -9.16273
upperneck 32.619 -9.22829 7.92802
head 13.3933 -4.25372 3.37401
rclavicle 8.42847e-014 -1.145e-013
rhumerus 15.7983 -19.0995 -83.0045
rradius 36.4191
rwrist -9.85771
rhand -22.9624 -25.3332
rfingers 7.12502
rthumb 3.47944 -55.2846
lclavicle 8.42847e-014 -1.145e-013
lhumerus 1.09809 -59.8524 92.3408
lradius 70.1745
lwrist 80.391
lhand -12.3599 58.1476
lfingers 7.12502
lthumb 13.7102 -272.324
rfemur -47.228 -5.33627 15.3222
rtibia 35.0824
rfoot -10.6521 -10.1466
rtoes 11.5011
lfemur -25.8561 -11.8171 -15.2662
ltibia 21.3683
lfoot -14.0878 -18.4046
ltoes -2.52933
1722
root 15.2625 17.7545 -0.0176781 20.2952 -31.7537 4.33494
lowerback 16.0565 0.226461 -1.40334
upperback 7.28903 0.111113 6.28103
thorax -1.23898 -0.147768 7.47123
lowerneck -9.83866 -5.5387 -9.71061
upperneck 32.8061 -8.82152 7.94206
head 13.4927 -4.14316 3.53919
rclavicle 4.29375e-014 1.59028e-015
rhumerus 16.7858 -19.6263 -82.0105
rradius 35.5285
rwrist -8.77844
rhand -24.1495 -25.8553
rfingers 7.12502
rthumb 2.33299 -55.8223
lclavicle 4.29375e-014 1.59028e-015
lhumerus 2.46114 -59.7263 92.0303
lradius 69.9782
lwrist 80.3533
lhand -12.5373 57.9976
lfingers 7.12502
lthumb 13.5392 -272.463
rfemur -47.095 -5.2442 15.3414
rtibia 35.132
rfoot -10.9939 -10.1501
rtoes 12.417
lfemur -25.7906 -11.8234 -15.1467
ltibia 21.4195
lfoot -13.9465 -18.606
ltoes -2.38497
1723
root 15.2291 17.7569 -0.0135905 20.4364 -31.6359 4.31655
lowerback 16.1025 -0.0295992 -1.68132
upperback 7.20729 -0.255708 6.26578
thorax -1.29503 -0.331942 7.68251
lowerneck -9.92652 -5.3767 -10.0718
upperneck 32.9393 -8.52249 7.97247
head 13.5564 -4.05701 3.66249
rclavicle 4.29375e-014 2.06736e-014
rhumerus 17.8498 -20.681 -81.4434
rradius 34.5543
rwrist -7.30738
rhand -24.8635 -25.9105
rfingers 7.12502
rthumb 1.64338 -55.8839
lclavicle 4.29375e-014 2.06736e-014
lhumerus 3.94476 -59.7866 91.3379
lradius 69.8008
lwrist 80.3836
lhand -12.6473 58.1179
lfingers 7.12502
lthumb 13.4332 -272.335
rfemur -47.1655 -5.39364 15.5247
rtibia 35.1837
rfoot -11.1666 -10.0092
rtoes 12.6961
lfemur -25.8897 -11.7588 -14.9929
ltibia 21.4411
lfoot -13.7176 -18.8179
ltoes -1.86463
